<mxfile host="app.diagrams.net" modified="2023-12-13T18:51:49.824Z" agent="Mozilla/5.0 (Windows NT 10.0; Win64; x64) AppleWebKit/537.36 (KHTML, like Gecko) Chrome/120.0.0.0 Safari/537.36" etag="554O2SNSJwBpND70aMcJ" version="22.1.7" type="github">
  <diagram name="Seite-1" id="osP9VikOhbHR7fOa7SQz">
    <mxGraphModel dx="2514" dy="2089" grid="1" gridSize="10" guides="1" tooltips="1" connect="1" arrows="1" fold="1" page="1" pageScale="1" pageWidth="827" pageHeight="1169" background="none" math="0" shadow="0">
      <root>
        <mxCell id="0" />
        <mxCell id="1" parent="0" />
        <mxCell id="cVMqvwIyuu8IxggJA45d-3" value="" style="rounded=0;whiteSpace=wrap;html=1;labelBackgroundColor=none;fillColor=#EDEDED;gradientColor=#CCCCCC;" parent="1" vertex="1">
          <mxGeometry x="-740" y="-1100" width="930" height="850" as="geometry" />
        </mxCell>
        <mxCell id="xuz98YopQS9WIF7cPWxn-35" style="edgeStyle=orthogonalEdgeStyle;rounded=0;orthogonalLoop=1;jettySize=auto;html=1;entryX=0.5;entryY=0;entryDx=0;entryDy=0;exitX=0.778;exitY=1.007;exitDx=0;exitDy=0;exitPerimeter=0;" parent="1" source="xuz98YopQS9WIF7cPWxn-22" target="cVMqvwIyuu8IxggJA45d-18" edge="1">
          <mxGeometry relative="1" as="geometry">
            <mxPoint x="-288.75" y="-452" as="targetPoint" />
          </mxGeometry>
        </mxCell>
        <mxCell id="xuz98YopQS9WIF7cPWxn-22" value="" style="rounded=1;whiteSpace=wrap;html=1;fillColor=#dae8fc;strokeColor=#6c8ebf;" parent="1" vertex="1">
          <mxGeometry x="-590" y="-792" width="600" height="260" as="geometry" />
        </mxCell>
        <mxCell id="HuNmMZiUPK55yXc_vqOk-4" value="&lt;b&gt;Primus&lt;/b&gt;" style="rounded=1;whiteSpace=wrap;html=1;fillColor=#CCE5FF;" parent="1" vertex="1">
          <mxGeometry x="-630" y="-1002" width="170" height="60" as="geometry" />
        </mxCell>
        <mxCell id="xuz98YopQS9WIF7cPWxn-30" style="edgeStyle=orthogonalEdgeStyle;rounded=0;orthogonalLoop=1;jettySize=auto;html=1;entryX=0.5;entryY=0;entryDx=0;entryDy=0;" parent="1" source="HuNmMZiUPK55yXc_vqOk-5" target="xuz98YopQS9WIF7cPWxn-26" edge="1">
          <mxGeometry relative="1" as="geometry" />
        </mxCell>
        <mxCell id="HuNmMZiUPK55yXc_vqOk-5" value="" style="image;aspect=fixed;html=1;points=[];align=center;fontSize=12;image=img/lib/azure2/databases/Azure_Database_PostgreSQL_Server.svg;" parent="1" vertex="1">
          <mxGeometry x="-320" y="-776" width="66.5" height="88.66" as="geometry" />
        </mxCell>
        <mxCell id="HuNmMZiUPK55yXc_vqOk-6" value="&lt;b&gt;PDS&lt;/b&gt;" style="rounded=1;whiteSpace=wrap;html=1;fillColor=#CCE5FF;" parent="1" vertex="1">
          <mxGeometry x="-210" y="-355" width="170" height="60" as="geometry" />
        </mxCell>
        <mxCell id="HuNmMZiUPK55yXc_vqOk-25" value="" style="group;horizontal=0;labelBorderColor=default;html=1;fontStyle=0;perimeterSpacing=5;strokeWidth=10;rounded=0;glass=0;fillColor=none;gradientColor=none;shadow=0;" parent="1" vertex="1" connectable="0">
          <mxGeometry x="-595" y="-892" width="100" height="80" as="geometry" />
        </mxCell>
        <mxCell id="HuNmMZiUPK55yXc_vqOk-10" value="" style="ellipse;whiteSpace=wrap;html=1;aspect=fixed;fillColor=#FF6666;strokeColor=default;fontSize=54;gradientColor=#EA6B66;" parent="HuNmMZiUPK55yXc_vqOk-25" vertex="1">
          <mxGeometry x="10" width="80" height="80" as="geometry" />
        </mxCell>
        <mxCell id="HuNmMZiUPK55yXc_vqOk-24" value="&lt;font face=&quot;Helvetica&quot; style=&quot;font-size: 54px;&quot;&gt;t&lt;/font&gt;" style="text;html=1;fontSize=48;fontStyle=1;verticalAlign=middle;align=center;strokeWidth=1;perimeterSpacing=0;rounded=0;horizontal=1;fontColor=#FFFFFF;fontFamily=Tahoma;whiteSpace=wrap;" parent="HuNmMZiUPK55yXc_vqOk-25" vertex="1">
          <mxGeometry y="20" width="100" height="40" as="geometry" />
        </mxCell>
        <mxCell id="xuz98YopQS9WIF7cPWxn-2" value="Talend-Job:&lt;br&gt;IBM MQ Queue Input" style="text;html=1;strokeColor=none;fillColor=none;align=center;verticalAlign=middle;whiteSpace=wrap;rounded=0;" parent="1" vertex="1">
          <mxGeometry x="-520" y="-922" width="120" height="30" as="geometry" />
        </mxCell>
        <mxCell id="xuz98YopQS9WIF7cPWxn-3" style="edgeStyle=orthogonalEdgeStyle;rounded=0;orthogonalLoop=1;jettySize=auto;html=1;exitX=1;exitY=0.5;exitDx=0;exitDy=0;" parent="1" source="HuNmMZiUPK55yXc_vqOk-24" target="xuz98YopQS9WIF7cPWxn-22" edge="1">
          <mxGeometry relative="1" as="geometry" />
        </mxCell>
        <mxCell id="xuz98YopQS9WIF7cPWxn-11" style="edgeStyle=orthogonalEdgeStyle;rounded=0;orthogonalLoop=1;jettySize=auto;html=1;exitX=0.5;exitY=1;exitDx=0;exitDy=0;entryX=0.5;entryY=0;entryDx=0;entryDy=0;" parent="1" source="xuz98YopQS9WIF7cPWxn-4" target="xuz98YopQS9WIF7cPWxn-6" edge="1">
          <mxGeometry relative="1" as="geometry" />
        </mxCell>
        <mxCell id="xuz98YopQS9WIF7cPWxn-4" value="&lt;b&gt;Rest Schnittstelle&lt;br&gt;&lt;/b&gt;" style="rounded=1;whiteSpace=wrap;html=1;fillColor=#CCE5FF;" parent="1" vertex="1">
          <mxGeometry x="-115" y="-1002" width="170" height="60" as="geometry" />
        </mxCell>
        <mxCell id="xuz98YopQS9WIF7cPWxn-5" value="" style="group;horizontal=0;labelBorderColor=default;html=1;fontStyle=0;perimeterSpacing=5;strokeWidth=10;rounded=0;glass=0;fillColor=none;gradientColor=none;shadow=0;" parent="1" vertex="1" connectable="0">
          <mxGeometry x="-80" y="-892" width="100" height="80" as="geometry" />
        </mxCell>
        <mxCell id="xuz98YopQS9WIF7cPWxn-6" value="" style="ellipse;whiteSpace=wrap;html=1;aspect=fixed;fillColor=#FF6666;strokeColor=default;fontSize=54;gradientColor=#EA6B66;" parent="xuz98YopQS9WIF7cPWxn-5" vertex="1">
          <mxGeometry x="10" width="80" height="80" as="geometry" />
        </mxCell>
        <mxCell id="xuz98YopQS9WIF7cPWxn-7" value="&lt;font face=&quot;Helvetica&quot; style=&quot;font-size: 54px;&quot;&gt;t&lt;/font&gt;" style="text;html=1;fontSize=48;fontStyle=1;verticalAlign=middle;align=center;strokeWidth=1;perimeterSpacing=0;rounded=0;horizontal=1;fontColor=#FFFFFF;fontFamily=Tahoma;whiteSpace=wrap;" parent="xuz98YopQS9WIF7cPWxn-5" vertex="1">
          <mxGeometry y="20" width="100" height="40" as="geometry" />
        </mxCell>
        <mxCell id="xuz98YopQS9WIF7cPWxn-10" style="edgeStyle=orthogonalEdgeStyle;rounded=0;orthogonalLoop=1;jettySize=auto;html=1;entryX=0.5;entryY=0;entryDx=0;entryDy=0;entryPerimeter=0;" parent="1" source="HuNmMZiUPK55yXc_vqOk-4" target="HuNmMZiUPK55yXc_vqOk-10" edge="1">
          <mxGeometry relative="1" as="geometry" />
        </mxCell>
        <mxCell id="xuz98YopQS9WIF7cPWxn-12" value="Talend-Services:&lt;br&gt;Rest-Input" style="text;html=1;strokeColor=none;fillColor=none;align=center;verticalAlign=middle;whiteSpace=wrap;rounded=0;" parent="1" vertex="1">
          <mxGeometry x="-150" y="-932" width="120" height="30" as="geometry" />
        </mxCell>
        <mxCell id="xuz98YopQS9WIF7cPWxn-14" value="" style="image;aspect=fixed;html=1;points=[];align=center;fontSize=12;image=img/lib/azure2/integration/API_Management_Services.svg;" parent="1" vertex="1">
          <mxGeometry x="20" y="-882" width="65" height="60" as="geometry" />
        </mxCell>
        <mxCell id="xuz98YopQS9WIF7cPWxn-15" value="Managed Azure-DB Postgres SQL Server&lt;br&gt;Staging Layer" style="text;html=1;strokeColor=none;fillColor=none;align=center;verticalAlign=middle;whiteSpace=wrap;rounded=0;" parent="1" vertex="1">
          <mxGeometry x="-235" y="-746.6700000000001" width="120" height="30" as="geometry" />
        </mxCell>
        <mxCell id="xuz98YopQS9WIF7cPWxn-19" value="Azure API&lt;br&gt;Management" style="text;html=1;strokeColor=none;fillColor=none;align=center;verticalAlign=middle;whiteSpace=wrap;rounded=0;" parent="1" vertex="1">
          <mxGeometry y="-922" width="120" height="30" as="geometry" />
        </mxCell>
        <mxCell id="xuz98YopQS9WIF7cPWxn-24" style="edgeStyle=orthogonalEdgeStyle;rounded=0;orthogonalLoop=1;jettySize=auto;html=1;exitX=0;exitY=0.5;exitDx=0;exitDy=0;entryX=0.5;entryY=0;entryDx=0;entryDy=0;" parent="1" source="xuz98YopQS9WIF7cPWxn-7" target="xuz98YopQS9WIF7cPWxn-22" edge="1">
          <mxGeometry relative="1" as="geometry" />
        </mxCell>
        <mxCell id="xuz98YopQS9WIF7cPWxn-25" value="" style="group;horizontal=0;labelBorderColor=default;html=1;fontStyle=0;perimeterSpacing=5;strokeWidth=10;rounded=0;glass=0;fillColor=none;gradientColor=none;shadow=0;" parent="1" vertex="1" connectable="0">
          <mxGeometry x="-510" y="-705" width="100" height="80" as="geometry" />
        </mxCell>
        <mxCell id="xuz98YopQS9WIF7cPWxn-26" value="" style="ellipse;whiteSpace=wrap;html=1;aspect=fixed;fillColor=#FF6666;strokeColor=default;fontSize=54;gradientColor=#EA6B66;" parent="xuz98YopQS9WIF7cPWxn-25" vertex="1">
          <mxGeometry x="10" width="80" height="80" as="geometry" />
        </mxCell>
        <mxCell id="xuz98YopQS9WIF7cPWxn-27" value="&lt;font face=&quot;Helvetica&quot; style=&quot;font-size: 54px;&quot;&gt;t&lt;/font&gt;" style="text;html=1;fontSize=48;fontStyle=1;verticalAlign=middle;align=center;strokeWidth=1;perimeterSpacing=0;rounded=0;horizontal=1;fontColor=#FFFFFF;fontFamily=Tahoma;whiteSpace=wrap;" parent="xuz98YopQS9WIF7cPWxn-25" vertex="1">
          <mxGeometry y="20" width="100" height="40" as="geometry" />
        </mxCell>
        <mxCell id="xuz98YopQS9WIF7cPWxn-29" value="" style="image;aspect=fixed;html=1;points=[];align=center;fontSize=12;image=img/lib/azure2/databases/Azure_Database_PostgreSQL_Server.svg;" parent="1" vertex="1">
          <mxGeometry x="-320" y="-642" width="66.5" height="88.66" as="geometry" />
        </mxCell>
        <mxCell id="xuz98YopQS9WIF7cPWxn-33" style="edgeStyle=orthogonalEdgeStyle;rounded=0;orthogonalLoop=1;jettySize=auto;html=1;entryX=-0.015;entryY=0.474;entryDx=0;entryDy=0;entryPerimeter=0;exitX=0.5;exitY=1;exitDx=0;exitDy=0;" parent="1" source="xuz98YopQS9WIF7cPWxn-26" target="xuz98YopQS9WIF7cPWxn-29" edge="1">
          <mxGeometry relative="1" as="geometry" />
        </mxCell>
        <mxCell id="CEzzBulH6AvLMj057orU-3" style="edgeStyle=orthogonalEdgeStyle;rounded=0;orthogonalLoop=1;jettySize=auto;html=1;" edge="1" parent="1" source="xuz98YopQS9WIF7cPWxn-34" target="CEzzBulH6AvLMj057orU-1">
          <mxGeometry relative="1" as="geometry" />
        </mxCell>
        <mxCell id="xuz98YopQS9WIF7cPWxn-34" value="" style="image;aspect=fixed;html=1;points=[];align=center;fontSize=12;image=img/lib/azure2/integration/API_Management_Services.svg;" parent="1" vertex="1">
          <mxGeometry x="-478" y="-470" width="65" height="60" as="geometry" />
        </mxCell>
        <mxCell id="xuz98YopQS9WIF7cPWxn-36" value="Managed Azure-DB Postgres SQL Server&lt;br&gt;Processing Layer" style="text;html=1;strokeColor=none;fillColor=none;align=center;verticalAlign=middle;whiteSpace=wrap;rounded=0;" parent="1" vertex="1">
          <mxGeometry x="-235" y="-612.6700000000001" width="120" height="30" as="geometry" />
        </mxCell>
        <mxCell id="cVMqvwIyuu8IxggJA45d-1" value="Datenaufbereitung&lt;br&gt;Business-Logik" style="text;html=1;strokeColor=none;fillColor=none;align=center;verticalAlign=middle;whiteSpace=wrap;rounded=0;" parent="1" vertex="1">
          <mxGeometry x="-420" y="-680" width="120" height="30" as="geometry" />
        </mxCell>
        <mxCell id="cVMqvwIyuu8IxggJA45d-8" value="MDS" style="text;html=1;strokeColor=none;fillColor=none;align=center;verticalAlign=middle;whiteSpace=wrap;rounded=0;fontStyle=1;fontSize=18;" parent="1" vertex="1">
          <mxGeometry x="-720" y="-1092" width="60" height="30" as="geometry" />
        </mxCell>
        <mxCell id="cVMqvwIyuu8IxggJA45d-9" value="Azure API&lt;br&gt;Management&lt;br&gt;Schnittstelle" style="text;html=1;strokeColor=none;fillColor=none;align=center;verticalAlign=middle;whiteSpace=wrap;rounded=0;" parent="1" vertex="1">
          <mxGeometry x="-615" y="-437" width="120" height="30" as="geometry" />
        </mxCell>
        <mxCell id="cVMqvwIyuu8IxggJA45d-10" value="" style="image;aspect=fixed;html=1;points=[];align=center;fontSize=12;image=img/lib/azure2/devops/Azure_DevOps.svg;" parent="1" vertex="1">
          <mxGeometry x="-578.75" y="-727.5" width="47.5" height="47.5" as="geometry" />
        </mxCell>
        <mxCell id="cVMqvwIyuu8IxggJA45d-11" value="" style="image;aspect=fixed;html=1;points=[];align=center;fontSize=12;image=img/lib/azure2/general/Subscriptions.svg;" parent="1" vertex="1">
          <mxGeometry x="-568.94" y="-780.0000000000001" width="27.89" height="45" as="geometry" />
        </mxCell>
        <mxCell id="cVMqvwIyuu8IxggJA45d-14" value="Azure Subscription:&lt;br&gt;&lt;br&gt;Projektablage im&lt;br&gt;Azure DevOps - Repo&lt;br&gt;&lt;br&gt;&lt;br&gt;Jobausführung&amp;nbsp;&lt;br&gt;über &lt;br&gt;Azure Remote Engine" style="text;html=1;strokeColor=none;fillColor=none;align=center;verticalAlign=middle;whiteSpace=wrap;rounded=0;" parent="1" vertex="1">
          <mxGeometry x="-720" y="-687.34" width="120" height="35" as="geometry" />
        </mxCell>
        <mxCell id="cVMqvwIyuu8IxggJA45d-15" value="" style="outlineConnect=0;dashed=0;verticalLabelPosition=bottom;verticalAlign=top;align=center;html=1;shape=mxgraph.aws3.emr_engine;fillColor=#FF6666;gradientColor=none;" parent="1" vertex="1">
          <mxGeometry x="-583.25" y="-593.34" width="52" height="40" as="geometry" />
        </mxCell>
        <mxCell id="cVMqvwIyuu8IxggJA45d-17" value="" style="group;horizontal=0;labelBorderColor=default;html=1;fontStyle=0;perimeterSpacing=5;strokeWidth=10;rounded=0;glass=0;fillColor=none;gradientColor=none;shadow=0;" parent="1" vertex="1" connectable="0">
          <mxGeometry x="-174" y="-470" width="100" height="80" as="geometry" />
        </mxCell>
        <mxCell id="cVMqvwIyuu8IxggJA45d-18" value="" style="ellipse;whiteSpace=wrap;html=1;aspect=fixed;fillColor=#FF6666;strokeColor=default;fontSize=54;gradientColor=#EA6B66;" parent="cVMqvwIyuu8IxggJA45d-17" vertex="1">
          <mxGeometry x="10" width="80" height="80" as="geometry" />
        </mxCell>
        <mxCell id="cVMqvwIyuu8IxggJA45d-19" value="&lt;font face=&quot;Helvetica&quot; style=&quot;font-size: 54px;&quot;&gt;t&lt;/font&gt;" style="text;html=1;fontSize=48;fontStyle=1;verticalAlign=middle;align=center;strokeWidth=1;perimeterSpacing=0;rounded=0;horizontal=1;fontColor=#FFFFFF;fontFamily=Tahoma;whiteSpace=wrap;" parent="cVMqvwIyuu8IxggJA45d-17" vertex="1">
          <mxGeometry y="20" width="100" height="40" as="geometry" />
        </mxCell>
        <mxCell id="cVMqvwIyuu8IxggJA45d-22" style="edgeStyle=orthogonalEdgeStyle;rounded=0;orthogonalLoop=1;jettySize=auto;html=1;exitX=0.5;exitY=1;exitDx=0;exitDy=0;entryX=0.5;entryY=0;entryDx=0;entryDy=0;" parent="1" source="cVMqvwIyuu8IxggJA45d-18" target="HuNmMZiUPK55yXc_vqOk-6" edge="1">
          <mxGeometry relative="1" as="geometry" />
        </mxCell>
        <mxCell id="cVMqvwIyuu8IxggJA45d-23" style="edgeStyle=orthogonalEdgeStyle;rounded=0;orthogonalLoop=1;jettySize=auto;html=1;entryX=0.508;entryY=-0.05;entryDx=0;entryDy=0;entryPerimeter=0;" parent="1" target="xuz98YopQS9WIF7cPWxn-34" edge="1">
          <mxGeometry relative="1" as="geometry">
            <mxPoint x="-280" y="-497" as="targetPoint" />
            <mxPoint x="-445" y="-530" as="sourcePoint" />
          </mxGeometry>
        </mxCell>
        <mxCell id="cVMqvwIyuu8IxggJA45d-24" value="Talend&lt;br&gt;Weitergabe der Daten an PDS" style="text;html=1;strokeColor=none;fillColor=none;align=center;verticalAlign=middle;whiteSpace=wrap;rounded=0;" parent="1" vertex="1">
          <mxGeometry x="-69" y="-445" width="120" height="30" as="geometry" />
        </mxCell>
        <mxCell id="cVMqvwIyuu8IxggJA45d-25" value="" style="sketch=0;points=[[0,0,0],[0.25,0,0],[0.5,0,0],[0.75,0,0],[1,0,0],[0,1,0],[0.25,1,0],[0.5,1,0],[0.75,1,0],[1,1,0],[0,0.25,0],[0,0.5,0],[0,0.75,0],[1,0.25,0],[1,0.5,0],[1,0.75,0]];outlineConnect=0;fontColor=#232F3E;fillColor=#FF6666;strokeColor=#ffffff;dashed=0;verticalLabelPosition=bottom;verticalAlign=top;align=center;html=1;fontSize=12;fontStyle=0;aspect=fixed;shape=mxgraph.aws4.resourceIcon;resIcon=mxgraph.aws4.mq;" parent="1" vertex="1">
          <mxGeometry x="-699" y="-1010" width="78" height="78" as="geometry" />
        </mxCell>
        <mxCell id="CEzzBulH6AvLMj057orU-1" value="" style="image;aspect=fixed;html=1;points=[];align=center;fontSize=12;image=img/lib/azure2/networking/Application_Gateways.svg;" vertex="1" parent="1">
          <mxGeometry x="-477" y="-359" width="64" height="64" as="geometry" />
        </mxCell>
        <mxCell id="CEzzBulH6AvLMj057orU-2" value="Azure API&lt;br&gt;Apllication Gateway" style="text;html=1;strokeColor=none;fillColor=none;align=center;verticalAlign=middle;whiteSpace=wrap;rounded=0;" vertex="1" parent="1">
          <mxGeometry x="-621" y="-350" width="120" height="30" as="geometry" />
        </mxCell>
        <mxCell id="CEzzBulH6AvLMj057orU-4" value="" style="image;sketch=0;aspect=fixed;html=1;points=[];align=center;fontSize=12;image=img/lib/mscae/Azure_Repos.svg;" vertex="1" parent="1">
          <mxGeometry x="-577.5" y="-662.67" width="45" height="50" as="geometry" />
        </mxCell>
      </root>
    </mxGraphModel>
  </diagram>
</mxfile>
